<svg xmlns="http://www.w3.org/2000/svg" version="1.1" viewBox="-5.0 -10.0 110.0 135.0">
 <path d="m69.105 50c0 10.551-8.5547 19.105-19.105 19.105s-19.105-8.5547-19.105-19.105 8.5547-19.105 19.105-19.105 19.105 8.5547 19.105 19.105"/>
 <path d="m93.066 40.824h-10.34c-0.94922 0-1.7969-0.60156-2.1094-1.4961-0.41016-1.1797-0.89063-2.3398-1.4297-3.4492-0.41406-0.85547-0.24219-1.8789 0.42969-2.5508l7.3047-7.3047c2.6914-2.582 2.6914-7.2227 0-9.8047l-3.1523-3.1602c-2.7031-2.7031-7.1016-2.7031-9.8047 0l-7.3125 7.3125c-0.67188 0.67188-1.6953 0.84375-2.5508 0.42969-1.1094-0.53516-2.2695-1.0156-3.4492-1.4258-0.89844-0.3125-1.5-1.1562-1.5-2.1094v-10.332c0-3.8242-3.1133-6.9336-6.9336-6.9336h-4.4609c-3.8242 0-6.9336 3.1094-6.9336 6.9336v10.344c0 0.94922-0.60156 1.7969-1.4961 2.1094-1.1797 0.41016-2.3398 0.89062-3.4492 1.4297-0.85547 0.41406-1.8789 0.24219-2.5508-0.42969l-7.3047-7.3047c-2.582-2.6914-7.2227-2.6914-9.8047 0l-3.1602 3.1484c-2.6914 2.582-2.6914 7.2227 0 9.8047l7.3125 7.3125c0.67188 0.67188 0.84375 1.6953 0.42969 2.5508-0.53516 1.1094-1.0156 2.2695-1.4258 3.4492-0.3125 0.89844-1.1562 1.5-2.1094 1.5h-10.332c-3.8242 0-6.9336 3.1133-6.9336 6.9336v4.4609c0 3.8242 3.1094 6.9336 6.9336 6.9336h10.34c0.94922 0 1.7969 0.60156 2.1094 1.4961 0.41016 1.1797 0.89063 2.3398 1.4297 3.4492 0.41406 0.85547 0.24219 1.8789-0.42969 2.5508l-7.3047 7.3047c-2.6914 2.582-2.6914 7.2227 0 9.8047l3.1562 3.1562c2.7031 2.7031 7.1016 2.7031 9.8047 0l7.3125-7.3125c0.67578-0.67578 1.7031-0.84375 2.5508-0.42969 1.1094 0.53516 2.2695 1.0156 3.4492 1.4258 0.89844 0.3125 1.5 1.1562 1.5 2.1094v10.332c0 3.8242 3.1094 6.9336 6.9336 6.9336h4.4609c3.8242 0 6.9336-3.1094 6.9336-6.9336v-10.344c0-0.94922 0.60156-1.7969 1.4961-2.1094 1.1797-0.41016 2.3398-0.89062 3.4492-1.4297 0.85547-0.41406 1.8789-0.24219 2.5508 0.42969l7.3047 7.3047c2.582 2.6914 7.2227 2.6914 9.8047 0l3.1562-3.1562c2.6914-2.582 2.6914-7.2227 0-9.8047l-7.3125-7.3125c-0.67188-0.67188-0.84375-1.6953-0.42969-2.5508 0.53516-1.1094 1.0156-2.2695 1.4258-3.4492 0.3125-0.89844 1.1562-1.5 2.1094-1.5h10.332c3.8242 0 6.9336-3.1094 6.9336-6.9336v-4.4609c0-3.8125-3.1094-6.9219-6.9336-6.9219zm-43.066 32.742c-12.996 0-23.566-10.574-23.566-23.566 0-12.996 10.57-23.566 23.566-23.566s23.566 10.57 23.566 23.566-10.57 23.566-23.566 23.566z"/>
<text x="0.0" y="117.5" font-size="5.0" font-weight="bold" font-family="Arbeit Regular, Helvetica, Arial-Unicode, Arial, Sans-serif" fill="#000000">Created by Shocho</text><text x="0.0" y="122.5" font-size="5.0" font-weight="bold" font-family="Arbeit Regular, Helvetica, Arial-Unicode, Arial, Sans-serif" fill="#000000">from Noun Project</text></svg>