<svg xmlns="http://www.w3.org/2000/svg" xmlns:xlink="http://www.w3.org/1999/xlink" version="1.1" x="0px" y="0px" viewBox="0 0 100 125" style="enable-background:new 0 0 100 100;" xml:space="preserve"><path d="M91.8,25c0-2.7-2.2-4.9-4.9-4.9h-64L33.6,9.2c1.9-1.9,1.9-5,0-7c-1-1-2.2-1.4-3.5-1.4c-1.3,0-2.5,0.5-3.5,1.4  L7.5,21.5c-1.9,1.9-1.9,5,0,6.9l19.2,19.4c0.9,0.9,2.2,1.5,3.5,1.5c1.3,0,2.5-0.5,3.5-1.4c0.9-0.9,1.5-2.2,1.5-3.5  c0-1.3-0.5-2.6-1.4-3.5L22.7,29.9h64.1C89.6,29.9,91.8,27.7,91.8,25z"/><path d="M69.1,98.9c1.3,0,2.6-0.5,3.5-1.5L91.8,78c1.9-1.9,1.9-5,0-6.9L72.6,51.9c-1.9-1.9-5-1.9-7,0  c-1.9,1.9-1.9,5,0,7l10.8,10.8h-64c-2.7,0-4.9,2.2-4.9,4.9c0,2.7,2.2,4.9,4.9,4.9h64.1L65.6,90.5c-0.9,0.9-1.4,2.2-1.4,3.5  c0,1.3,0.5,2.5,1.5,3.5C66.6,98.4,67.8,98.9,69.1,98.9z"/><text x="0" y="115" fill="#000000" font-size="5px" font-weight="bold" font-family="'Helvetica Neue', Helvetica, Arial-Unicode, Arial, Sans-serif">Created by Aneeque Ahmed</text><text x="0" y="120" fill="#000000" font-size="5px" font-weight="bold" font-family="'Helvetica Neue', Helvetica, Arial-Unicode, Arial, Sans-serif">from the Noun Project</text></svg>