<svg xmlns="http://www.w3.org/2000/svg" version="1.1" viewBox="-5.0 -10.0 110.0 135.0">
 <path d="m30.09 83.129h39.82c7.7695 0 14.09-6.3203 14.09-14.09v-28.531c0-5-2.6914-9.6719-7.0117-12.18l-19.91-11.559c-4.3594-2.5312-9.7891-2.5312-14.148 0l-19.91 11.559c-4.3281 2.5117-7.0117 7.1797-7.0117 12.18v28.531c0 7.7695 6.3203 14.09 14.09 14.09zm10.559-20.129h18.699c1.6602 0 3 1.3398 3 3s-1.3398 3-3 3h-18.699c-1.6602 0-3-1.3398-3-3s1.3398-3 3-3z"/>
<text x="0.0" y="117.5" font-size="5.0" font-weight="bold" font-family="Arbeit Regular, Helvetica, Arial-Unicode, Arial, Sans-serif" fill="#000000">Created by Trident</text><text x="0.0" y="122.5" font-size="5.0" font-weight="bold" font-family="Arbeit Regular, Helvetica, Arial-Unicode, Arial, Sans-serif" fill="#000000">from Noun Project</text></svg>