<svg xmlns="http://www.w3.org/2000/svg" xmlns:xlink="http://www.w3.org/1999/xlink" xml:space="preserve" version="1.1" style="shape-rendering:geometricPrecision;text-rendering:geometricPrecision;image-rendering:optimizeQuality;" viewBox="0 0 50798 63497.5" x="0px" y="0px" fill-rule="evenodd" clip-rule="evenodd"><defs><style type="text/css">
   
    .fil0 {fill:black}
   
  </style></defs><g><path class="fil0" d="M17623 26171c4949,0 8961,-4012 8961,-8961 0,-4949 -4012,-8961 -8961,-8961 -4949,0 -8961,4012 -8961,8961 0,4949 4012,8961 8961,8961z"/><path class="fil0" d="M25403 25168c-2015,1921 -4758,3103 -7780,3103 -3022,0 -5765,-1182 -7780,-3103 -347,-86 -694,-171 -1031,-214 -337,-43 -663,-43 -967,4 -303,46 -583,140 -910,257 -327,116 -700,256 -1167,536 -466,280 -1027,700 -1563,1401 -537,699 -1050,1680 -1517,2847 -467,1166 -887,2520 -1120,3827 -233,1306 -280,2567 -303,3523 -24,957 -24,1611 70,2241 93,630 279,1236 700,1843 420,607 1073,1214 1843,1680 770,467 1657,794 2871,957 1213,163 2753,163 4620,163l5414 0 840 0 840 0 5414 0c1867,0 3407,0 4620,-163 1214,-163 2101,-490 2871,-957 770,-466 1423,-1073 1843,-1680 421,-607 607,-1213 700,-1843 94,-630 94,-1284 70,-2241 -23,-956 -70,-2217 -303,-3523 -233,-1307 -653,-2661 -1120,-3827 -467,-1167 -980,-2148 -1517,-2847 -536,-701 -1097,-1121 -1563,-1401 -467,-280 -840,-420 -1167,-536 -327,-117 -607,-211 -910,-257 -304,-47 -630,-47 -967,-4 -337,43 -684,128 -1031,214z"/><path class="fil0" d="M27166 21626c1593,1454 3714,2342 6041,2342 4949,0 8961,-4012 8961,-8961 0,-4949 -4012,-8961 -8961,-8961 -3178,0 -5971,1655 -7561,4150 1794,1638 2920,3998 2920,6619 0,1770 -514,3422 -1400,4811z"/><path class="fil0" d="M40491 23296c-1955,1863 -4594,3032 -7509,3100l322 386c537,699 1050,1680 1517,2847 467,1166 887,2520 1120,3827 233,1306 280,2567 303,3523 24,957 24,1611 -70,2241 -93,630 -279,1236 -700,1843 -313,452 -755,905 -1278,1298l4769 0c1867,0 3407,0 4620,-163 1214,-163 2101,-490 2871,-957 770,-466 1423,-1073 1843,-1680 421,-607 607,-1213 700,-1843 94,-630 94,-1284 70,-2241 -23,-956 -70,-2217 -303,-3523 -233,-1307 -653,-2661 -1120,-3827 -467,-1167 -980,-2148 -1517,-2847 -536,-701 -1097,-1121 -1563,-1401 -467,-280 -840,-420 -1167,-536 -327,-117 -607,-211 -910,-257 -304,-47 -630,-47 -967,-4 -337,43 -684,128 -1031,214z"/></g><text x="0" y="50813" fill="#000000" font-size="5px" font-weight="bold" font-family="'Helvetica Neue', Helvetica, Arial-Unicode, Arial, Sans-serif">Created by Alex Muravev</text><text x="0" y="50818" fill="#000000" font-size="5px" font-weight="bold" font-family="'Helvetica Neue', Helvetica, Arial-Unicode, Arial, Sans-serif">from the Noun Project</text></svg>